<?xml version="1.0" standalone="no"?>
<!DOCTYPE svg PUBLIC "-//W3C//DTD SVG 20010904//EN"
 "http://www.w3.org/TR/2001/REC-SVG-20010904/DTD/svg10.dtd">
<svg version="1.0" xmlns="http://www.w3.org/2000/svg"
 width="225.000000pt" height="225.000000pt" viewBox="0 0 225.000000 225.000000"
 preserveAspectRatio="xMidYMid meet">
<metadata>
Created by potrace 1.14, written by Peter Selinger 2001-2017
</metadata>
<g transform="translate(0.000000,225.000000) scale(0.100000,-0.100000)"
fill="#000000" stroke="none">
<path d="M1073 1870 c-464 -39 -724 -209 -788 -515 -19 -89 -19 -119 1 -184
30 -102 124 -172 282 -211 42 -11 221 -38 398 -60 304 -38 373 -50 402 -73 22
-17 15 -92 -13 -125 -42 -50 -94 -65 -246 -70 -210 -7 -299 29 -315 127 l-7
41 -336 -2 -336 -3 0 -90 c0 -78 4 -98 28 -146 87 -178 327 -269 752 -285 262
-11 529 20 710 81 127 42 212 92 291 170 107 106 156 221 155 371 0 111 -35
178 -123 237 -112 73 -201 93 -634 141 -329 37 -388 52 -399 99 -10 39 22 94
69 122 83 48 287 58 398 20 57 -20 98 -65 98 -106 l0 -29 328 2 327 3 -1 78
c-2 142 -71 240 -219 313 -77 38 -182 67 -301 84 -107 15 -396 21 -521 10z"/>
</g>
</svg>
